<?xml version="1.0" standalone="no"?>
<!DOCTYPE svg PUBLIC "-//W3C//DTD SVG 20010904//EN" "http://www.w3.org/TR/2001/REC-SVG-20010904/DTD/svg10.dtd">
<svg version="1.0" xmlns="http://www.w3.org/2000/svg" width="64" height="64" viewBox="0 0 64 64"
    preserveAspectRatio="xMidYMid meet">

    <g transform="translate(0.000000,64.000000) scale(0.100000,-0.100000)" fill="#000000" stroke="none">
        <path d="M198 460 c-60 -50 -108 -96 -108 -103 0 -16 20 -37 35 -37 6 0 51 34
100 75 50 41 92 75 95 75 3 0 46 -34 95 -75 49 -42 96 -74 104 -73 7 2 19 11
25 20 8 13 6 22 -12 41 -17 18 -22 35 -22 75 0 51 -1 52 -29 52 -24 0 -30 -5
-33 -25 -3 -25 -3 -25 -58 20 -30 25 -62 45 -70 45 -8 0 -63 -41 -122 -90z" />
        <path d="M223 353 l-93 -77 0 -56 c0 -75 18 -92 91 -88 l54 3 5 60 5 60 35 0
35 0 5 -60 5 -60 54 -3 c73 -4 91 13 91 88 l0 56 -91 75 c-49 41 -93 75 -97
76 -4 1 -49 -32 -99 -74z" />
    </g>
</svg>